<svg width="107" height="27" viewBox="0 0 107 27" fill="none" xmlns="http://www.w3.org/2000/svg">
<g clip-path="url(#clip0)">
<path fill-rule="evenodd" clip-rule="evenodd" d="M79.8142 24.4964L77.8657 22.2937L79.6448 20.2604H78.967L77.1032 22.4631V20.2604H76.5949V24.4964H77.1032V23.0561L77.5268 22.5478L79.1365 24.4117H79.8142V24.4964ZM99.9777 12.6355H97.2667V2.80794H99.9777C103.112 2.80794 104.807 5.01067 104.807 7.72173C104.807 10.4328 103.028 12.6355 99.9777 12.6355ZM57.0244 13.991V2.80794H61.0063V1.36769H51.4329V2.80794H55.4147V14.0758H57.0244V13.991ZM5.59909 14.2452C8.98791 14.2452 10.2587 12.3814 10.2587 10.5175C10.2587 5.77316 2.80331 7.46757 2.80331 4.58707C2.80331 3.40098 3.90468 2.55378 5.42965 2.55378C6.78517 2.55378 8.1407 3.0621 9.07263 4.07875L10.0046 2.89266C8.90319 1.79129 7.46294 1.11353 5.51437 1.11353C3.05747 1.11353 1.19362 2.55378 1.19362 4.58707C1.19362 9.07726 8.64903 7.29813 8.64903 10.5175C8.64903 11.4494 7.97126 12.7202 5.68381 12.7202C3.90468 12.7202 2.54915 11.873 1.70194 10.9411L0.77002 12.2119C1.78667 13.398 3.39635 14.2452 5.59909 14.2452ZM18.9849 14.2452C21.1877 14.2452 22.7126 13.1438 23.814 11.7036L22.4585 10.9411C21.7807 12.0425 20.4252 12.805 18.9849 12.805C16.1891 12.805 14.1559 10.6869 14.1559 7.63701C14.1559 4.58707 16.2739 2.46906 18.9849 2.46906C20.4252 2.46906 21.696 3.23154 22.4585 4.33291L23.814 3.57042C22.7973 2.13017 21.2724 1.02881 18.9849 1.02881C15.3419 1.02881 12.4614 3.65514 12.4614 7.55229C12.5462 11.6189 15.3419 14.2452 18.9849 14.2452ZM34.8277 13.991V12.5508H28.1347V8.23005H34.7429V6.87452H28.1347V2.80794H34.8277V1.36769H26.525V13.991H34.8277ZM48.8065 13.991V1.36769H47.1968V11.1953L39.9956 1.36769H38.3859V13.991H39.9956V3.90931L47.3663 13.991H48.8065ZM69.0547 12.6355H65.1576V8.23005H69.0547C70.5797 8.23005 71.4269 9.2467 71.4269 10.4328C71.4269 11.7883 70.495 12.6355 69.0547 12.6355ZM68.97 6.87452H65.1576V2.80794H68.97C70.4103 2.80794 71.1727 3.73986 71.1727 4.84123C71.1727 5.9426 70.4103 6.87452 68.97 6.87452ZM69.3936 13.991C71.6811 13.991 73.0366 12.6355 73.0366 10.6022C73.0366 9.07726 71.9352 7.72173 70.5797 7.46757C71.2213 7.31251 71.7902 6.94178 72.1912 6.41743C72.5922 5.89307 72.8009 5.24691 72.7824 4.58707C72.7824 2.72322 71.4269 1.36769 69.2242 1.36769H63.6326V13.991H69.3936ZM78.4587 13.991V1.36769H76.849V13.991H78.4587ZM88.0321 7.63701H84.728V2.80794H88.0321C89.5571 2.80794 90.5737 3.82459 90.5737 5.18011C90.5737 6.62036 89.4724 7.63701 88.0321 7.63701ZM92.2682 13.991L88.8793 8.82309C90.5737 8.65365 92.1834 7.38285 92.1834 5.18011C92.1834 2.80794 90.5737 1.36769 88.2016 1.36769H83.1183V13.991H84.728V8.99254H87.2696L90.489 13.991H92.2682ZM99.9777 13.991C103.875 13.991 106.416 11.28 106.416 7.72173C106.416 4.16347 103.875 1.36769 99.9777 1.36769H95.657V13.991H99.9777ZM87.4391 21.3617C88.0321 21.3617 88.4557 21.7853 88.4557 22.3784C88.4557 22.9714 88.0321 23.395 87.4391 23.395C86.846 23.395 86.4224 22.9714 86.4224 22.3784C86.4224 21.8701 86.846 21.3617 87.4391 21.3617ZM18.8155 21.3617C19.4085 21.3617 19.8321 21.7853 19.8321 22.3784C19.8321 22.9714 19.4085 23.395 18.8155 23.395C18.2224 23.395 17.7988 22.9714 17.7988 22.3784C17.7988 21.8701 18.3072 21.3617 18.8155 21.3617ZM30.8458 24.4964V20.2604H30.3375V23.5645L27.8806 20.2604H27.3723V24.4964H27.8806V21.1076L30.3375 24.4964H30.8458ZM38.2165 24.4964V23.9881H36.0137V22.5478H38.2165V22.0395H36.0137V20.684H38.2165V20.1756H35.4207V24.4117H38.2165V24.4964ZM46.4344 24.4964L47.6205 20.2604H47.0274L46.0955 23.7339L45.1636 20.2604H44.74L43.808 23.7339L42.8761 20.2604H42.2831L43.4692 24.4964H43.9775L44.9094 21.1076L45.8413 24.4964H46.4344ZM55.33 24.4964V22.7173L57.0244 20.2604H56.4314L54.9911 22.2089L53.7203 20.2604H53.1273L54.8217 22.7173V24.4964H55.33ZM62.7854 24.1575C61.8535 24.1575 61.2605 23.395 61.2605 22.4631C61.2605 21.4464 61.8535 20.7687 62.7854 20.7687C63.7173 20.7687 64.3104 21.5312 64.3104 22.4631C64.3104 23.395 63.7173 24.1575 62.7854 24.1575ZM62.7854 24.5811C64.0562 24.5811 64.9034 23.6492 64.9034 22.3784C64.9034 21.1076 64.0562 20.1756 62.7854 20.1756C61.5146 20.1756 60.6674 21.1076 60.6674 22.3784C60.6674 23.6492 61.5146 24.5811 62.7854 24.5811ZM70.9186 22.3784H69.8172V20.7687H70.9186C71.4269 20.7687 71.7658 21.1076 71.7658 21.5312C71.6811 22.0395 71.3422 22.3784 70.9186 22.3784ZM72.2741 24.4964L71.1727 22.802C71.7658 22.7173 72.2741 22.2937 72.2741 21.6159C72.2741 20.8534 71.7658 20.3451 70.9186 20.3451H69.2242V24.5811H69.7325V22.8867H70.5797L71.6811 24.5811H72.2741V24.4964Z" fill="#0C0D1E"/>
</g>
<defs>
<clipPath id="clip0">
<rect width="105.901" height="26.2634" fill="white" transform="translate(0.77002 0.0966797)"/>
</clipPath>
</defs>
</svg>
