<svg width="120" height="88" viewBox="0 0 120 88" fill="none" xmlns="http://www.w3.org/2000/svg">
<path d="M114.5 6.00005C93.5 7.49999 88.1506 -2.94811 74.0001 7.50005C59.8496 17.9482 61.7249 35.1667 69.0001 40.5C72.434 43.0173 82.2362 40.5654 81.5001 33C80.3746 21.4324 66.85 23.2465 62.672 22.9619C58.6954 22.691 45.0753 23.0059 53.0822 34.6876C58.6097 42.7519 55.2647 37.6518 50.4251 34.1869C37.3368 24.8162 9.00011 42 9.00008 85.5" stroke="#141414" stroke-width="3" stroke-linecap="round" stroke-linejoin="round"/>
<path d="M2 65C3.4151 71.761 5.16186 79.6688 8.54604 85.7603C8.99336 86.5655 9.9851 83.2209 10.3124 82.5808C12.5256 78.2528 17.9994 68.2221 22.1992 66.1222" stroke="#141414" stroke-width="3" stroke-linecap="round" stroke-linejoin="round"/>
</svg>
