<svg width="101" height="98" viewBox="0 0 101 98" fill="none" xmlns="http://www.w3.org/2000/svg">
<path d="M59.3563 35.0922L85.553 23.1554L68.0862 46.0391L66.9934 47.4708L68.5992 48.2865L94.2651 61.3255L65.4835 61.9371L63.6828 61.9754L64.0462 63.7394L69.8544 91.9355L51.4312 69.8145L50.2786 68.4306L49.1259 69.8145L30.7027 91.9355L36.5109 63.7394L36.8743 61.9754L35.0736 61.9371L6.29207 61.3255L31.958 48.2865L33.5637 47.4708L32.4709 46.0391L15.0041 23.1554L41.2008 35.0922L42.8397 35.839L43.2777 34.092L50.2786 6.16814L57.2794 34.092L57.7174 35.839L59.3563 35.0922Z" fill="white" stroke="#141414" stroke-width="3"/>
</svg>
