<svg width="115" height="66" viewBox="0 0 115 66" fill="none" xmlns="http://www.w3.org/2000/svg">
<g clip-path="url(#clip0)">
<path d="M109.032 59.2775C106.011 54.1097 86.2968 9.83379 77.0313 24.1182C72.9954 30.3401 66.338 44.5966 69.3843 52.2124C70.8222 55.807 78.8382 58.0017 81.6028 54.6228C85.8299 49.4564 71.6008 31.5332 68.6363 28.191C65.8147 25.01 55.6071 14.5761 56.4178 25.1156C56.9775 32.3914 56.735 27.9067 54.6723 22.8714C49.0939 9.25361 36.1368 -2.2974 20.7598 4.08653C10.5171 8.33893 3.40842 16.3075 2.05805 27.1105" stroke="#141414" stroke-width="3" stroke-linecap="round" stroke-linejoin="round"/>
<path d="M91.8591 54.5712C96.328 55.2981 105.904 57.9857 108.458 62.9211C111.012 67.8565 112.548 44.7713 112.996 32.6118" stroke="#141414" stroke-width="3" stroke-linecap="round" stroke-linejoin="round"/>
</g>
<defs>
<clipPath id="clip0">
<rect width="115" height="66" fill="white"/>
</clipPath>
</defs>
</svg>
