<svg width="24" height="22" viewBox="0 0 24 22" fill="none" xmlns="http://www.w3.org/2000/svg">
<path d="M15.464 6.2128C16.5685 4.35465 15.913 1.97864 13.9999 0.905841C12.0869 -0.166963 9.64064 0.469686 8.53612 2.32784L0.536538 15.7857C-0.567975 17.6439 0.0874917 20.0199 2.00056 21.0927C3.91363 22.1655 6.35987 21.5289 7.46438 19.6707L15.464 6.2128Z" fill="black"/>
<path d="M8.53605 6.2128C7.43154 4.35465 8.087 1.97864 10.0001 0.90584C11.9131 -0.166963 14.3594 0.469686 15.4639 2.32784L23.4635 15.7857C24.568 17.6439 23.9125 20.0199 21.9994 21.0927C20.0864 22.1655 17.6401 21.5289 16.5356 19.6707L8.53605 6.2128Z" fill="black"/>
<path d="M8.00081 17.7305C8.00081 19.8761 6.21004 21.6154 4.00101 21.6154C1.79199 21.6154 0.00122037 19.8761 0.00122049 17.7305C0.00122061 15.5849 1.79199 13.8455 4.00101 13.8455C6.21004 13.8455 8.00081 15.5849 8.00081 17.7305Z" fill="black"/>
</svg>
