<svg width="30" height="30" viewBox="0 0 30 30" fill="none" xmlns="http://www.w3.org/2000/svg">
<path d="M5.17683 0.786745C4.18902 1.17097 3.35366 1.68327 2.51829 2.5188C1.68293 3.34824 1.17073 4.18988 0.786585 5.17178C0.414634 6.1232 0.164634 7.21488 0.0914634 8.81277C0.0182927 10.4107 0 10.923 0 14.997C0 19.0709 0.0182927 19.5832 0.0914634 21.1811C0.164634 22.779 0.420732 23.8707 0.786585 24.8221C1.17073 25.8101 1.68293 26.6457 2.51829 27.4812C3.35366 28.3167 4.18902 28.829 5.17683 29.2133C6.12805 29.5853 7.21951 29.8353 8.81707 29.9085C10.4146 29.9817 10.9268 30 15 30C19.0732 30 19.5854 29.9817 21.1829 29.9085C22.7805 29.8353 23.872 29.5792 24.8232 29.2133C25.811 28.829 26.6463 28.3167 27.4817 27.4812C28.3171 26.6457 28.8293 25.8101 29.2134 24.8221C29.5854 23.8707 29.8354 22.779 29.9085 21.1811C29.9817 19.5832 30 19.0709 30 14.997C30 10.923 29.9817 10.4107 29.9085 8.81277C29.8354 7.21488 29.5793 6.1232 29.2134 5.17178C28.8293 4.18988 28.3171 3.34824 27.4878 2.5188C26.6524 1.68327 25.8171 1.17097 24.8293 0.786745C23.878 0.414718 22.7866 0.164668 21.189 0.091482C19.5915 0.0182964 19.0793 0 15.0061 0C10.9329 0 10.4207 0.0182964 8.82317 0.091482C7.21951 0.158569 6.12805 0.414718 5.17683 0.786745ZM21.061 2.78715C22.5244 2.85424 23.3171 3.09819 23.8476 3.30555C24.5488 3.58 25.0488 3.90323 25.5732 4.42773C26.0976 4.95223 26.4207 5.45233 26.6951 6.15369C26.9024 6.68428 27.1463 7.47713 27.2134 8.94084C27.2866 10.5204 27.2988 10.9961 27.2988 15.003C27.2988 19.01 27.2805 19.4857 27.2134 21.0653C27.1463 22.529 26.9024 23.3218 26.6951 23.8524C26.4207 24.5538 26.0976 25.0539 25.5732 25.5784C25.0488 26.1029 24.5488 26.4261 23.8476 26.7005C23.3171 26.9079 22.5244 27.1519 21.061 27.2189C19.4817 27.2921 19.0061 27.3043 15 27.3043C10.9939 27.3043 10.5183 27.286 8.93902 27.2189C7.47561 27.1519 6.68293 26.9079 6.15244 26.7005C5.45122 26.4261 4.95122 26.1029 4.42683 25.5784C3.90244 25.0539 3.57927 24.5538 3.30488 23.8524C3.09756 23.3218 2.85366 22.529 2.78659 21.0653C2.71341 19.4857 2.70122 19.01 2.70122 15.003C2.70122 10.9961 2.71951 10.5204 2.78659 8.94084C2.85366 7.47713 3.09756 6.68428 3.30488 6.15369C3.57927 5.45233 3.90244 4.95223 4.42683 4.42773C4.95122 3.90323 5.45122 3.58 6.15244 3.30555C6.68293 3.09819 7.47561 2.85424 8.93902 2.78715C10.5183 2.71397 10.9939 2.70177 15 2.70177C19.0061 2.70177 19.4817 2.71397 21.061 2.78715Z" fill="#0C0D1E"/>
<path d="M7.29883 15.0031C7.29883 19.2601 10.75 22.7059 15 22.7059C19.25 22.7059 22.7013 19.254 22.7013 15.0031C22.7013 10.7522 19.2561 7.30032 15 7.30032C10.744 7.30032 7.29883 10.7461 7.29883 15.0031ZM20 15.0031C20 17.7659 17.7622 20.0041 15 20.0041C12.2379 20.0041 10 17.7659 10 15.0031C10 12.2404 12.2379 10.0021 15 10.0021C17.7622 10.0021 20 12.2404 20 15.0031Z" fill="#0C0D1E"/>
<path d="M23.0122 8.79394C24.0056 8.79394 24.8109 7.9886 24.8109 6.99516C24.8109 6.00172 24.0056 5.19638 23.0122 5.19638C22.0187 5.19638 21.2134 6.00172 21.2134 6.99516C21.2134 7.9886 22.0187 8.79394 23.0122 8.79394Z" fill="#0C0D1E"/>
</svg>
