<svg width="111" height="16" viewBox="0 0 111 16" fill="none" xmlns="http://www.w3.org/2000/svg">
<path d="M0.398193 1.16916H13.2838V3.47427H3.17201V6.809H13.1071V8.97581H3.17201V12.4873H13.2838V14.8308H0.398193V1.16916ZM19.9456 10.4588H22.8346C22.8346 11.788 24.4482 12.8023 27.3603 12.8023C30.4338 12.8023 32.4393 12.2721 32.4393 10.866C32.4393 7.54664 20.2145 11.0274 20.2145 5.21079C20.2145 2.39087 23.1266 0.854126 27.3373 0.854126C31.8092 0.854126 34.7982 2.69053 34.8366 5.54119H31.9475C31.9475 4.18886 30.4108 3.23608 27.5371 3.17461C24.6634 3.11314 23.0267 3.72783 23.0267 4.99565C23.0267 8.01534 35.2285 4.7805 35.2285 10.7738C35.2285 13.563 32.155 15.1458 27.5447 15.1458C22.9345 15.1458 19.8841 13.248 19.9456 10.4588V10.4588ZM46.3929 3.48964H39.7618V1.18453H55.8285V3.48964H49.1667V14.8308H46.3929V3.48964ZM61.6835 1.16916H72.4407C75.276 1.16916 76.8357 2.7059 76.8357 4.7805C76.8357 6.8551 75.0762 8.21512 72.4407 8.21512H70.9731C74.2002 8.43026 75.468 10.3819 77.8116 14.8308H74.4922C71.9489 10.282 71.3265 9.03728 68.8908 9.03728H64.4342V14.8308H61.6835V1.16916ZM71.7414 6.77058C73.355 6.77058 74.0466 6.18662 74.0466 5.18774C74.0466 3.9814 73.3473 3.45122 71.7414 3.45122H64.4189V6.77058H71.7414ZM85.1342 1.16916H87.908V14.8308H85.1342V1.16916ZM96.0066 1.16916H102.43C107.371 1.16916 110.398 3.52806 110.398 7.99998C110.398 12.4719 107.325 14.8308 102.43 14.8308H96.0066V1.16916ZM102.43 12.4873C105.726 12.4873 107.809 10.866 107.809 7.99998C107.809 5.13395 105.742 3.48964 102.43 3.48964H98.7497V12.4873H102.43Z" fill="#141414"/>
</svg>
