<svg width="81" height="30" viewBox="0 0 81 30" fill="none" xmlns="http://www.w3.org/2000/svg">
<path d="M4.89356 16.1833C7.37629 16.1833 9.3889 14.173 9.3889 11.6932C9.3889 9.2134 7.37629 7.20314 4.89356 7.20314C2.41083 7.20314 0.398193 9.2134 0.398193 11.6932C0.398193 14.173 2.41083 16.1833 4.89356 16.1833Z" fill="#141414"/>
<path fill-rule="evenodd" clip-rule="evenodd" d="M46.6219 0.109195C53.5555 0.0895763 57.8027 4.55646 57.8197 10.5687C57.8402 17.7029 52.9565 23.0232 45.6076 23.0446C39.1721 23.0625 34.5947 18.8872 34.575 12.4156C34.5571 6.03234 39.0239 0.130598 46.6219 0.109195ZM41.2176 12.2747C41.2256 15.0116 43.0166 17.1215 45.7567 17.1144C49.328 17.1037 51.1878 14.2375 51.1779 10.8363C51.1699 8.09946 49.4619 6.03144 46.5584 6.03947C43.1095 6.04928 41.2087 9.12319 41.2176 12.2747ZM29.3082 0.531992L23.0835 12.9838L21.0461 0.555179L14.299 0.573906L17.9337 22.7495L24.6807 22.7299L25.2807 22.729L36.3866 0.511482L29.3082 0.531992ZM67.5409 11.9707L73.321 0.407164L80.3982 0.387545L65.6615 29.8713L58.584 29.8908L62.7509 21.5528L58.4305 0.449969L65.1775 0.43035L67.5409 11.9707Z" fill="#141414"/>
</svg>
