<svg width="103" height="34" viewBox="0 0 103 34" fill="none" xmlns="http://www.w3.org/2000/svg">
<g clip-path="url(#clip0)">
<path d="M12.3982 18.5C15.7119 18.5 18.3982 15.8137 18.3982 12.5C18.3982 9.18629 15.7119 6.5 12.3982 6.5C9.08448 6.5 6.39819 9.18629 6.39819 12.5C6.39819 15.8137 9.08448 18.5 12.3982 18.5Z" fill="#141414"/>
<path fill-rule="evenodd" clip-rule="evenodd" d="M24.3982 12.5C24.3982 19.1274 19.0256 24.5 12.3982 24.5C5.77077 24.5 0.398193 19.1274 0.398193 12.5C0.398193 5.87258 5.77077 0.5 12.3982 0.5C19.0256 0.5 24.3982 5.87258 24.3982 12.5ZM21.3982 12.5C21.3982 17.4706 17.3688 21.5 12.3982 21.5C7.42763 21.5 3.39819 17.4706 3.39819 12.5C3.39819 7.52944 7.42763 3.5 12.3982 3.5C17.3688 3.5 21.3982 7.52944 21.3982 12.5Z" fill="#141414"/>
<path d="M6.39819 31.5C6.39819 30.3954 7.29362 29.5 8.39819 29.5H16.3982C17.5028 29.5 18.3982 30.3954 18.3982 31.5C18.3982 32.6046 17.5028 33.5 16.3982 33.5H8.39819C7.29362 33.5 6.39819 32.6046 6.39819 31.5Z" fill="#141414"/>
<path d="M41.2758 22.3636C41.2758 21.9239 41.1093 21.5209 40.7764 21.1544C40.453 20.7758 39.7253 20.2689 38.5932 19.6338C36.9285 18.7666 35.7823 17.8688 35.1544 16.9406C34.5361 16.0123 34.0436 14.7709 34.0436 13.3907C34.0436 11.6563 34.7121 10.3144 35.6824 9.19069C36.6622 8.05477 37.9559 7.48682 39.5635 7.48682C41.2568 7.48682 43.0377 8.36625 44.1724 9.61902C44.9675 10.725 45.1742 13.1879 45.1601 15.0453C45.1585 15.2536 45.157 15.4545 45.157 15.6454H41.7105C41.7105 15.4581 41.7162 15.2537 41.7221 15.0388C41.7673 13.4036 41.8292 11.1635 39.5493 11.2793C39.1212 11.2793 38.7692 11.4503 38.4934 11.7923C38.2175 12.1343 38.0796 12.6106 38.0796 13.2214C38.0796 13.6611 38.2318 14.0519 38.5362 14.3939C38.8406 14.7237 39.5588 15.2 40.6908 15.823C42.3365 16.6047 43.497 17.478 44.1724 18.4429C44.8573 19.3956 45.1998 20.6353 45.1998 22.1621C45.1998 23.9331 44.6813 25.3561 43.6445 26.4309C42.6076 27.5058 41.2473 28.0432 39.5635 28.0432C38.4315 28.0432 37.4327 27.7623 36.5671 27.2004C35.7014 26.6264 35.0213 25.8324 34.5266 24.8187C34.0415 23.8049 33.7989 21.9425 33.7989 20.7699H37.4878C37.5068 21.6738 37.7219 23.2299 38.0263 23.6819C38.3402 24.1338 38.9482 24.5 39.6521 24.5C40.7366 24.5 41.2758 23.6217 41.2758 22.3636Z" fill="#141414"/>
<path fill-rule="evenodd" clip-rule="evenodd" d="M68.4486 27.6589V7.91277H74.6153C81.8935 7.85906 80.8849 20.3093 74.6153 20.3727H71.8732V27.6589H68.4486ZM71.8732 16.887V11.2915H74.6153C76.8076 11.9041 76.844 16.0306 74.4002 16.887H71.8732Z" fill="#141414"/>
<path d="M81.674 7.91277H85.0599V24.1611H91.0242V27.6589H81.674V7.91277Z" fill="#141414"/>
<path d="M102.323 19.1751H96.3568V24.1611H102.323V27.6589H92.9583V7.91277H102.323V11.2865H96.3568V15.7641H102.323V19.1751Z" fill="#141414"/>
<path d="M65.9826 27.6589H62.566V13.0126L59.5391 17.2683L56.632 13.0126V27.6589H53.1256V7.91277H56.8816L59.5391 11.7239L62.2427 7.91277H65.9826V27.6589Z" fill="#141414"/>
<path d="M50.5156 7.91277H47.1413V27.6589H50.5156V7.91277Z" fill="#141414"/>
</g>
<defs>
<clipPath id="clip0">
<rect width="102" height="33" fill="white" transform="translate(0.398193 0.5)"/>
</clipPath>
</defs>
</svg>
