<svg width="124" height="24" viewBox="0 0 124 24" fill="none" xmlns="http://www.w3.org/2000/svg">
<path d="M0 16.7671C0 12.7029 3.51315 9.53425 7.43962 9.53425C9.60951 9.53425 11.2972 10.4297 12.606 12.0141C12.8471 12.3241 12.7438 12.7029 12.4338 12.9785L10.3673 14.9417C10.195 15.1139 9.78172 15.045 9.60951 14.8728C9.12731 14.3562 8.40402 13.9773 7.61184 13.9773C6.09636 13.9773 4.85642 15.2517 4.85642 16.7671C4.85642 18.317 6.02747 19.5569 7.54294 19.5569C8.74844 19.5569 9.33397 19.0403 9.88505 18.4892C10.1262 18.2481 10.4361 18.1793 10.6428 18.3515L12.7094 20.1425C13.0193 20.418 13.1915 20.7624 12.9504 21.1068C11.6761 23.0356 9.88506 24 7.40519 24C3.47872 24 0 20.9002 0 16.7671ZM15.5445 23.1887V0.646966C15.5445 0.306457 15.8563 0 16.2027 0H20.0128C20.3592 0 20.6709 0.306457 20.6709 0.646966V23.1887C20.6709 23.5292 20.3592 23.8356 20.0128 23.8356H16.2027C15.8563 23.8356 15.5445 23.5292 15.5445 23.1887ZM23.4822 16.7671C23.4822 12.8751 26.5592 9.53425 30.6388 9.53425C34.1652 9.53425 37.2077 12.2207 37.2077 16.0094C37.2077 16.2505 37.1731 16.6982 37.1385 16.9393C37.1039 17.2838 36.7928 17.5249 36.4816 17.5249H28.1841C28.2878 18.4548 29.0484 19.798 30.8462 19.798C31.7105 19.798 32.7132 19.3847 33.2663 18.9714C33.5775 18.7303 33.9232 18.7303 34.1306 18.9714L35.8593 21.038C36.0667 21.3135 36.1359 21.7268 35.8247 22.0368C34.6147 23.2423 32.886 24 30.7079 24C26.5937 24 23.4822 20.728 23.4822 16.7671ZM28.4432 15.2877H32.0813C32.0133 14.3783 31.1632 13.6438 30.2792 13.6438C29.3612 13.6438 28.5792 14.3783 28.4432 15.2877ZM39.1921 19.4536C39.1921 16.8016 41.1279 14.8384 44.2736 14.8384C45.8292 14.8384 46.9354 15.3894 46.9354 15.3894C46.9354 14.0462 46.728 13.3573 45.0687 13.3573C44.1353 13.3573 42.5106 13.5984 41.6118 13.874C41.0933 14.0462 40.8513 13.6673 40.7822 13.1507L40.4711 10.9808C40.3674 10.3953 40.6785 10.1542 40.9896 10.0509C41.3007 9.94755 43.7205 9.53425 45.5872 9.53425C49.8737 9.53425 51.4292 11.3252 51.4292 15.3894V23.0012C51.4292 23.3456 51.1181 23.6556 50.7724 23.6556H49.2514C49.044 23.6556 48.802 23.5867 48.6292 23.2078L48.1453 22.2779C47.3502 23.0012 46.1403 24 43.9625 24C41.2316 24 39.1921 22.1746 39.1921 19.4536ZM43.657 19.1182C43.657 19.8981 44.2709 20.5479 45.0464 20.5479C45.822 20.5479 46.4682 19.8981 46.4682 19.1182C46.4359 18.3708 45.822 17.7534 45.0464 17.7534C44.2709 17.7534 43.657 18.3708 43.657 19.1182ZM54.902 22.7102V10.6637C54.902 10.2976 55.2197 10.0314 55.5727 10.0314H57.2317C57.4435 10.0314 57.7612 10.1978 57.8671 10.4307L58.4319 11.7618C59.2084 10.9632 60.8322 9.69863 63.409 9.69863C67.786 9.69863 70.1158 12.86 70.1158 16.6537V22.7102C70.1158 23.043 69.7981 23.3425 69.4451 23.3425H65.6681C65.2798 23.3425 64.9974 23.043 64.9974 22.7102V16.4873C64.9974 15.1562 64.1855 13.9914 62.5971 13.9914C61.1851 13.9914 59.9144 14.9565 59.9144 16.3209V22.7102C59.9144 23.0097 59.7732 23.3425 59.279 23.3425H55.5727C55.2197 23.3425 54.902 23.043 54.902 22.7102ZM72.1002 16.7671C72.1002 12.7029 75.6133 9.53425 79.5398 9.53425C81.7097 9.53425 83.3974 10.4297 84.7062 12.0141C84.9473 12.3241 84.844 12.7029 84.534 12.9785L82.4674 14.9417C82.2952 15.1139 81.8819 15.045 81.7097 14.8728C81.2275 14.3562 80.5042 13.9773 79.712 13.9773C78.1965 13.9773 76.9566 15.2517 76.9566 16.7671C76.9566 18.317 78.1276 19.5569 79.6431 19.5569C80.8486 19.5569 81.4342 19.0403 81.9852 18.4892C82.2263 18.2481 82.5363 18.1793 82.743 18.3515L84.8095 20.1425C85.1195 20.418 85.2917 20.7624 85.0506 21.1068C83.7762 23.0356 81.9852 24 79.5054 24C75.5789 24 72.1002 20.9002 72.1002 16.7671ZM87.314 17.0117V10.9884C87.314 10.6224 87.6145 10.3562 87.9485 10.3562H91.5218C91.8557 10.3562 92.1563 10.6224 92.1563 10.9884V17.1448C92.1563 18.5092 92.9244 19.7072 94.2936 19.7072C95.596 19.7072 96.2973 18.4759 96.2973 17.3445V10.9884C96.2973 10.456 96.6647 10.3562 96.9986 10.3562H100.405C100.739 10.3562 101.039 10.6224 101.039 10.9884V23.0349C101.039 23.3677 100.739 23.6672 100.405 23.6672H98.8354C98.5348 23.6672 98.301 23.4343 98.2009 23.2013L97.6999 21.9701C96.8316 22.802 95.763 24 93.1915 24C89.2175 24 87.314 20.8053 87.314 17.0117ZM105.504 23.1887V0.646966C105.504 0.306457 105.816 0 106.162 0H109.973C110.319 0 110.631 0.306457 110.631 0.646966V23.1887C110.631 23.5292 110.319 23.8356 109.973 23.8356H106.162C105.816 23.8356 105.504 23.5292 105.504 23.1887ZM114.788 19.3455V14.5236H113.895C113.551 14.5236 113.277 14.2222 113.277 13.8874V10.9072C113.277 10.5388 113.551 10.2709 113.895 10.2709H114.788V6.55403C114.788 6.21918 115.097 5.91781 115.441 5.91781H119.117C119.461 5.91781 119.735 6.21918 119.735 6.55403V10.2709H122.278C122.656 10.2709 122.93 10.5388 122.93 10.9072V13.8874C122.93 14.2222 122.656 14.5236 122.278 14.5236H119.735V18.7093C119.735 19.446 120.251 19.5129 120.663 19.5129C121.144 19.5129 121.659 19.3455 122.003 19.2785C122.346 19.2116 122.656 19.3455 122.759 19.7139L123.514 22.4932C123.583 22.7945 123.411 23.1629 123.068 23.2633C123.068 23.2633 120.629 24 118.911 24C116.3 24 114.788 22.3927 114.788 19.3455Z" fill="#141414"/>
</svg>
