<svg width="129" height="30" viewBox="0 0 129 30" fill="none" xmlns="http://www.w3.org/2000/svg">
<path d="M47.03 10.31C47.4607 10.31 47.8027 10.3797 48.056 10.519L47.714 13.255C47.5873 13.179 47.4163 13.1157 47.201 13.065C46.9857 13.0017 46.7577 12.97 46.517 12.97C45.909 12.97 45.4023 13.1663 44.997 13.559C44.5917 13.939 44.389 14.49 44.389 15.212V20H41.159V10.5H44.009L44.142 12.552C44.37 11.83 44.7247 11.279 45.206 10.899C45.7 10.5063 46.308 10.31 47.03 10.31Z" fill="#141414"/>
<path d="M58.4647 15.117C58.4647 15.5477 58.4331 15.9023 58.3697 16.181H51.8907C51.9921 16.7763 52.2074 17.2133 52.5367 17.492C52.8787 17.7707 53.3284 17.91 53.8857 17.91C54.3544 17.91 54.7344 17.8213 55.0257 17.644C55.3297 17.4667 55.5324 17.207 55.6337 16.865L58.2557 17.701C57.9897 18.5117 57.4704 19.1323 56.6977 19.563C55.9377 19.981 55.0004 20.19 53.8857 20.19C52.2264 20.19 50.9534 19.7593 50.0667 18.898C49.1927 18.0367 48.7557 16.8207 48.7557 15.25C48.7557 13.6793 49.1864 12.4633 50.0477 11.602C50.9091 10.7407 52.1314 10.31 53.7147 10.31C55.2474 10.31 56.4191 10.7343 57.2297 11.583C58.0531 12.419 58.4647 13.597 58.4647 15.117ZM53.6957 12.571C52.6697 12.571 52.0617 13.1917 51.8717 14.433H55.4437C55.2917 13.1917 54.7091 12.571 53.6957 12.571Z" fill="#141414"/>
<path d="M69.4925 10.5L66.0725 20H62.2155L58.7955 10.5H62.1964L64.1535 17.948L66.1484 10.5H69.4925Z" fill="#141414"/>
<path d="M79.6727 15.117C79.6727 15.5477 79.6411 15.9023 79.5777 16.181H73.0987C73.2001 16.7763 73.4154 17.2133 73.7447 17.492C74.0867 17.7707 74.5364 17.91 75.0937 17.91C75.5624 17.91 75.9424 17.8213 76.2337 17.644C76.5377 17.4667 76.7404 17.207 76.8417 16.865L79.4637 17.701C79.1977 18.5117 78.6784 19.1323 77.9057 19.563C77.1457 19.981 76.2084 20.19 75.0937 20.19C73.4344 20.19 72.1614 19.7593 71.2747 18.898C70.4007 18.0367 69.9637 16.8207 69.9637 15.25C69.9637 13.6793 70.3944 12.4633 71.2557 11.602C72.1171 10.7407 73.3394 10.31 74.9227 10.31C76.4554 10.31 77.6271 10.7343 78.4377 11.583C79.2611 12.419 79.6727 13.597 79.6727 15.117ZM74.9037 12.571C73.8777 12.571 73.2697 13.1917 73.0797 14.433H76.6517C76.4997 13.1917 75.9171 12.571 74.9037 12.571Z" fill="#141414"/>
<path d="M90.6553 18.157C90.896 18.157 91.0923 18.1317 91.2443 18.081L90.9973 19.886C90.63 20.0887 90.1993 20.19 89.7053 20.19C88.3373 20.19 87.5203 19.7023 87.2543 18.727C86.6843 19.7023 85.557 20.19 83.8723 20.19C82.9223 20.19 82.194 19.9873 81.6873 19.582C81.1807 19.1767 80.9273 18.5877 80.9273 17.815C80.9273 17.0043 81.2123 16.352 81.7823 15.858C82.365 15.3513 83.315 14.965 84.6323 14.699L86.7793 14.281V13.939C86.7793 13.5083 86.659 13.1663 86.4183 12.913C86.1777 12.6597 85.8483 12.533 85.4303 12.533C84.949 12.533 84.5563 12.647 84.2523 12.875C83.9483 13.103 83.752 13.4767 83.6633 13.996L81.0413 13.236C81.206 12.3113 81.662 11.5957 82.4093 11.089C83.1567 10.5697 84.1637 10.31 85.4303 10.31C86.9123 10.31 88.0397 10.614 88.8123 11.222C89.585 11.83 89.9713 12.742 89.9713 13.958V17.416C89.9713 17.91 90.1993 18.157 90.6553 18.157ZM85.0503 18.1C85.4937 18.1 85.8927 17.9797 86.2473 17.739C86.602 17.4857 86.7793 17.1563 86.7793 16.751V15.934L85.2403 16.295C84.835 16.3963 84.5437 16.523 84.3663 16.675C84.2017 16.8143 84.1193 17.017 84.1193 17.283C84.1193 17.549 84.2017 17.7517 84.3663 17.891C84.531 18.0303 84.759 18.1 85.0503 18.1Z" fill="#141414"/>
<path d="M95.7104 16.713C95.7104 17.1437 95.7737 17.4477 95.9004 17.625C96.027 17.8023 96.255 17.891 96.5844 17.891C96.8884 17.891 97.2114 17.834 97.5534 17.72L97.3444 19.715C97.1164 19.8543 96.8187 19.9683 96.4514 20.057C96.084 20.1457 95.723 20.19 95.3684 20.19C94.355 20.19 93.6204 19.9557 93.1644 19.487C92.7084 19.0057 92.4804 18.2393 92.4804 17.188V6.47198H95.7104V16.713Z" fill="#141414"/>
<path d="M104.833 10.31C106.049 10.31 107.006 10.747 107.702 11.621C108.399 12.495 108.747 13.7173 108.747 15.288C108.747 16.8333 108.405 18.0367 107.721 18.898C107.037 19.7593 106.075 20.19 104.833 20.19C104.086 20.19 103.434 19.9937 102.876 19.601C102.332 19.1957 101.926 18.6573 101.66 17.986L101.565 20H98.7342V6.47198H101.964V12.096C102.23 11.5387 102.604 11.1017 103.085 10.785C103.579 10.4683 104.162 10.31 104.833 10.31ZM103.712 17.815C104.282 17.815 104.719 17.606 105.023 17.188C105.34 16.77 105.498 16.124 105.498 15.25C105.498 14.376 105.34 13.73 105.023 13.312C104.719 12.894 104.282 12.685 103.712 12.685C103.155 12.685 102.724 12.9003 102.42 13.331C102.116 13.7617 101.964 14.3697 101.964 15.155V15.345C101.964 16.1557 102.116 16.77 102.42 17.188C102.737 17.606 103.168 17.815 103.712 17.815Z" fill="#141414"/>
<path d="M115.225 10.31C116.808 10.31 118.037 10.747 118.911 11.621C119.798 12.4823 120.241 13.692 120.241 15.25C120.241 16.808 119.798 18.024 118.911 18.898C118.037 19.7593 116.808 20.19 115.225 20.19C113.642 20.19 112.407 19.7593 111.52 18.898C110.646 18.024 110.209 16.808 110.209 15.25C110.209 13.692 110.646 12.4823 111.52 11.621C112.407 10.747 113.642 10.31 115.225 10.31ZM115.225 12.609C114.617 12.609 114.167 12.818 113.876 13.236C113.585 13.654 113.439 14.3253 113.439 15.25C113.439 16.1747 113.585 16.846 113.876 17.264C114.167 17.682 114.617 17.891 115.225 17.891C115.833 17.891 116.283 17.682 116.574 17.264C116.865 16.846 117.011 16.1747 117.011 15.25C117.011 14.3253 116.865 13.654 116.574 13.236C116.283 12.818 115.833 12.609 115.225 12.609Z" fill="#141414"/>
<path d="M128.917 19.468C128.601 19.6833 128.195 19.8607 127.701 20C127.22 20.1267 126.732 20.19 126.238 20.19C125.111 20.19 124.25 19.9493 123.654 19.468C123.059 18.9867 122.755 18.214 122.742 17.15V12.799H121.108V10.5H122.742V8.37198L125.972 7.47898V10.5H128.822V12.799H125.972V16.618C125.972 17.4667 126.39 17.891 127.226 17.891C127.746 17.891 128.202 17.7517 128.594 17.473L128.917 19.468Z" fill="#141414"/>
<rect width="30" height="30" rx="6" fill="#141414"/>
<path d="M14.1161 23.4727C13.628 22.9846 13.628 22.1931 14.1161 21.705L22.955 12.8661C23.4431 12.378 24.2346 12.378 24.7227 12.8661C25.2109 13.3543 25.2109 14.1457 24.7227 14.6339L15.8839 23.4727C15.3957 23.9609 14.6043 23.9609 14.1161 23.4727Z" fill="white"/>
<path d="M11.1161 20.4727C10.628 19.9846 10.628 19.1931 11.1161 18.705L19.955 9.86612C20.4431 9.37796 21.2346 9.37796 21.7227 9.86612C22.2109 10.3543 22.2109 11.1457 21.7227 11.6339L12.8839 20.4727C12.3957 20.9609 11.6043 20.9609 11.1161 20.4727Z" fill="white"/>
<path d="M8.11612 17.4727C7.62796 16.9846 7.62796 16.1931 8.11612 15.705L16.955 6.86612C17.4431 6.37796 18.2346 6.37796 18.7227 6.86612C19.2109 7.35427 19.2109 8.14573 18.7227 8.63388L9.88388 17.4727C9.39573 17.9609 8.60427 17.9609 8.11612 17.4727Z" fill="white"/>
<path d="M15.8828 23.4727C16.3709 22.9846 16.3709 22.1931 15.8828 21.705L7.04392 12.8661C6.55576 12.378 5.76431 12.378 5.27615 12.8661C4.788 13.3543 4.788 14.1457 5.27615 14.6339L14.115 23.4727C14.6031 23.9609 15.3946 23.9609 15.8828 23.4727Z" fill="white"/>
<path d="M18.8828 20.4727C19.3709 19.9846 19.3709 19.1931 18.8828 18.705L10.0439 9.86612C9.55576 9.37796 8.76431 9.37796 8.27615 9.86612C7.788 10.3543 7.788 11.1457 8.27615 11.6339L17.115 20.4727C17.6031 20.9609 18.3946 20.9609 18.8828 20.4727Z" fill="white"/>
<path d="M21.8828 17.4727C22.3709 16.9846 22.3709 16.1931 21.8828 15.705L13.0439 6.86612C12.5558 6.37796 11.7643 6.37796 11.2762 6.86612C10.788 7.35427 10.788 8.14573 11.2762 8.63388L20.115 17.4727C20.6031 17.9609 21.3946 17.9609 21.8828 17.4727Z" fill="white"/>
</svg>
