<svg width="24" height="24" viewBox="0 0 24 24" fill="none" xmlns="http://www.w3.org/2000/svg">
<rect x="24" y="24.0001" width="24" height="24" rx="4" transform="rotate(-180 24 24.0001)" fill="black"/>
<g clip-path="url(#clip0)">
<path d="M18.9715 15.5444C18.9106 15.3427 18.619 15.2006 18.619 15.2006C18.5914 15.186 18.5667 15.173 18.5464 15.1628C18.0604 14.9278 17.6295 14.6449 17.2667 14.3242C16.9751 14.066 16.7256 13.7816 16.5253 13.4798C16.2801 13.1113 16.1655 12.8037 16.1162 12.6368C16.0886 12.528 16.093 12.4845 16.1162 12.4279C16.135 12.38 16.1916 12.335 16.2177 12.3133C16.3817 12.1972 16.6458 12.026 16.8083 11.9215C16.949 11.8301 17.0694 11.7518 17.1405 11.7025C17.3683 11.5429 17.525 11.3804 17.6164 11.2048C17.7354 10.9785 17.7499 10.7289 17.657 10.4837C17.5323 10.1529 17.2232 9.95559 16.83 9.95559C16.743 9.95559 16.653 9.96574 16.5631 9.9846C16.3382 10.0339 16.1249 10.1137 15.9464 10.1834C15.9334 10.1892 15.9189 10.179 15.9203 10.1645C15.9392 9.72199 15.9609 9.12713 15.9116 8.56273C15.8681 8.05202 15.7622 7.6211 15.591 7.24532C15.4183 6.86809 15.1934 6.58952 15.0179 6.38784C14.851 6.19633 14.5565 5.9134 14.1125 5.6595C13.4886 5.30258 12.7777 5.12122 12 5.12122C11.2238 5.12122 10.5143 5.30258 9.88895 5.6595C9.41886 5.92791 9.11852 6.23115 8.98214 6.38784C8.80658 6.58952 8.58169 6.86809 8.40904 7.24532C8.23638 7.6211 8.13192 8.05057 8.08839 8.56273C8.03906 9.13003 8.05937 9.67701 8.07968 10.1645C8.07968 10.179 8.06663 10.1892 8.05212 10.1834C7.87366 10.1137 7.66038 10.0339 7.43549 9.9846C7.34698 9.96574 7.25703 9.95559 7.16852 9.95559C6.77678 9.95559 6.46774 10.1529 6.34152 10.4837C6.24866 10.7289 6.26317 10.9785 6.38214 11.2048C6.475 11.3804 6.63024 11.5429 6.85803 11.7025C6.92768 11.7518 7.04955 11.8301 7.19029 11.9215C7.34843 12.0246 7.60524 12.1914 7.77064 12.306C7.79096 12.3205 7.8606 12.3728 7.88236 12.4279C7.90558 12.4859 7.90993 12.5295 7.87946 12.6455C7.82868 12.8138 7.71406 13.1185 7.47321 13.4798C7.27299 13.783 7.02344 14.066 6.73181 14.3242C6.36908 14.6449 5.93817 14.9278 5.45212 15.1628C5.4289 15.1744 5.40134 15.1875 5.37232 15.2049C5.37232 15.2049 5.08214 15.3529 5.02701 15.5444C4.94576 15.8273 5.16194 16.0929 5.38102 16.235C5.74085 16.4672 6.17902 16.592 6.43292 16.6602C6.50402 16.679 6.56785 16.6964 6.62589 16.7138C6.66216 16.7254 6.75357 16.7603 6.79274 16.811C6.84207 16.8749 6.84788 16.9532 6.86529 17.0417C6.89285 17.1912 6.95524 17.3754 7.13951 17.5031C7.34263 17.6424 7.59944 17.6526 7.92589 17.6656C8.26685 17.6787 8.69051 17.6946 9.17656 17.8557C9.40145 17.9297 9.60602 18.0559 9.84107 18.201C10.3344 18.5042 10.9481 18.8815 11.9956 18.8815C13.0446 18.8815 13.6627 18.5028 14.1589 18.1981C14.394 18.0545 14.5956 17.9297 14.8162 17.8571C15.3022 17.6961 15.7259 17.6801 16.0668 17.6671C16.3933 17.654 16.6501 17.6453 16.8532 17.5046C17.0506 17.3682 17.1071 17.1651 17.1333 17.0127C17.1478 16.9373 17.1565 16.8691 17.2 16.8139C17.2377 16.7661 17.3219 16.7327 17.361 16.7196C17.4205 16.7008 17.4873 16.6834 17.5613 16.6631C17.8152 16.5949 18.1344 16.5151 18.5218 16.296C18.9889 16.0305 19.0209 15.7055 18.9715 15.5444Z" fill="white"/>
<path d="M19.3752 15.3878C19.2722 15.1063 19.0749 14.9568 18.8514 14.8321C18.8093 14.8074 18.7702 14.7871 18.7382 14.7726C18.6715 14.7378 18.6033 14.7044 18.5351 14.6696C17.8372 14.2996 17.2917 13.8324 16.9145 13.2796C16.7868 13.0924 16.6983 12.9241 16.6359 12.7863C16.604 12.6934 16.6054 12.6412 16.6286 12.5933C16.6461 12.5571 16.6925 12.5193 16.7186 12.5005C16.839 12.4207 16.9624 12.3409 17.0465 12.2872C17.1959 12.19 17.3149 12.1131 17.3904 12.0609C17.6776 11.8606 17.8779 11.6474 18.0026 11.4094C18.1797 11.0743 18.2014 10.6912 18.065 10.3314C17.8764 9.83229 17.4034 9.5218 16.8318 9.5218C16.7128 9.5218 16.5924 9.53485 16.4734 9.56097C16.4415 9.56823 16.411 9.57548 16.3805 9.58273C16.3863 9.24323 16.3776 8.8805 16.3472 8.52649C16.2398 7.27872 15.8031 6.62437 15.3475 6.1035C15.1574 5.88586 14.8266 5.56812 14.3304 5.28374C13.6384 4.8862 12.8549 4.68597 12.0003 4.68597C11.1486 4.68597 10.3651 4.8862 9.67307 5.28229C9.17396 5.56667 8.84315 5.88586 8.65454 6.10204C8.19896 6.62291 7.76224 7.27727 7.65487 8.52503C7.6244 8.87905 7.61715 9.24177 7.6215 9.58128C7.59103 9.57403 7.55911 9.56677 7.52865 9.55952C7.40967 9.5334 7.2878 9.52035 7.17028 9.52035C6.59862 9.52035 6.12563 9.83084 5.93702 10.3299C5.80063 10.6898 5.8224 11.0728 5.9994 11.408C6.12418 11.6459 6.32586 11.8592 6.61168 12.0594C6.68858 12.1131 6.8061 12.19 6.95554 12.2857C7.03679 12.338 7.15432 12.4149 7.27039 12.4918C7.2878 12.5034 7.35019 12.5498 7.37195 12.5933C7.39661 12.6427 7.39661 12.6963 7.36034 12.795C7.2994 12.9299 7.2109 13.0953 7.08612 13.2782C6.71615 13.8193 6.18657 14.2778 5.5119 14.6434C5.15353 14.8335 4.78211 14.9597 4.62541 15.3863C4.50644 15.7084 4.58478 16.0755 4.88512 16.3845C4.98378 16.4904 5.10856 16.5847 5.26525 16.6718C5.63378 16.8749 5.94717 16.975 6.19382 17.0432C6.23735 17.0563 6.33746 17.0882 6.38099 17.1274C6.49126 17.2231 6.4753 17.3682 6.62184 17.58C6.71034 17.7121 6.8119 17.802 6.89606 17.8601C7.20219 18.0719 7.54751 18.085 7.91313 18.0995C8.24249 18.1125 8.61682 18.127 9.04338 18.2678C9.22039 18.3258 9.40465 18.439 9.61648 18.5696C10.1272 18.8844 10.828 19.3139 11.9988 19.3139C13.1712 19.3139 13.8749 18.8815 14.3899 18.5667C14.6017 18.4375 14.7846 18.3244 14.9558 18.2678C15.3823 18.127 15.7567 18.1125 16.086 18.0995C16.4516 18.085 16.7955 18.0719 17.1031 17.8601C17.1988 17.7933 17.3207 17.6845 17.4165 17.5191C17.5209 17.3407 17.5195 17.2144 17.6182 17.1288C17.6588 17.094 17.7473 17.0635 17.7952 17.049C18.0433 16.9808 18.361 16.8807 18.7368 16.6732C18.9036 16.5818 19.0328 16.4817 19.1358 16.3671C19.1372 16.3657 19.1387 16.3642 19.1401 16.3628C19.4202 16.0581 19.4913 15.7026 19.3752 15.3878ZM18.3349 15.9463C17.6994 16.2975 17.2772 16.2597 16.9493 16.4701C16.6707 16.65 16.8347 17.0374 16.633 17.1767C16.3834 17.3494 15.6478 17.1651 14.6975 17.4785C13.914 17.7382 13.4135 18.4825 12.0017 18.4825C10.5871 18.4825 10.1011 17.7411 9.30599 17.4785C8.35565 17.1651 7.6186 17.3494 7.3705 17.1767C7.16882 17.0374 7.33278 16.65 7.0542 16.4701C6.7263 16.2583 6.30409 16.296 5.6686 15.9463C5.2638 15.7229 5.49304 15.5851 5.62798 15.5198C7.92909 14.4069 8.29472 12.6862 8.31213 12.5571C8.33244 12.4033 8.3542 12.2814 8.18445 12.1232C8.0205 11.9709 7.2907 11.5197 7.08903 11.3789C6.75387 11.1453 6.60733 10.9118 6.71615 10.6245C6.79159 10.4257 6.97731 10.3517 7.17318 10.3517C7.23411 10.3517 7.2965 10.359 7.35599 10.372C7.72307 10.4518 8.07999 10.6361 8.28601 10.6854C8.31503 10.6927 8.33969 10.6956 8.36146 10.6956C8.47173 10.6956 8.50945 10.6404 8.50219 10.5142C8.47898 10.1123 8.42094 9.32883 8.48478 8.59613C8.57184 7.58921 8.89684 7.0901 9.28278 6.64758C9.46849 6.43575 10.339 5.51588 12.0032 5.51588C13.6717 5.51588 14.5379 6.43575 14.7236 6.64758C15.1096 7.08865 15.4346 7.58776 15.5216 8.59613C15.5855 9.32883 15.5303 10.1123 15.5042 10.5142C15.4955 10.6462 15.5361 10.6956 15.6449 10.6956C15.6667 10.6956 15.6928 10.6927 15.7204 10.6854C15.9264 10.6361 16.2833 10.4518 16.6504 10.372C16.7099 10.359 16.7723 10.3517 16.8332 10.3517C17.0291 10.3517 17.2148 10.4272 17.2903 10.6245C17.3991 10.9118 17.2511 11.1453 16.9174 11.3789C16.7157 11.5197 15.9859 11.9709 15.822 12.1232C15.6522 12.2799 15.674 12.4018 15.6943 12.5571C15.7102 12.6862 16.0773 14.4069 18.3784 15.5198C18.509 15.5851 18.7397 15.7229 18.3349 15.9463Z" fill="black"/>
</g>
<defs>
<clipPath id="clip0">
<rect width="14.8571" height="14.8571" fill="white" transform="translate(4.57129 4.57135)"/>
</clipPath>
</defs>
</svg>
