<svg width="27" height="19" viewBox="0 0 27 19" fill="none" xmlns="http://www.w3.org/2000/svg">
<path fill-rule="evenodd" clip-rule="evenodd" d="M24.0391 0.563559C25.1915 0.869492 26.1197 1.78729 26.4238 2.96271H26.4398C27 5.07203 27 9.5 27 9.5C27 9.5 27 13.9119 26.4398 16.0373C26.1357 17.1966 25.2235 18.1305 24.0551 18.4364C22.0385 18.9678 14.2762 19 13.556 19H13.444C12.7238 19 4.94547 18.9839 2.94487 18.4364C1.79253 18.1305 0.864256 17.2127 0.560166 16.0373C0.0160047 13.9924 0 9.77373 0 9.5161V9.5V9.4839C0 9.22627 0.0160047 5.00763 0.560166 2.96271C0.864256 1.80339 1.77653 0.869492 2.94487 0.563559C5.04149 0 13.492 0 13.492 0C13.492 0 21.9265 0 24.0391 0.563559ZM17.7972 9.49997L10.7871 13.5737V5.42624L17.7972 9.49997Z" fill="#141414"/>
</svg>
